<svg width="24" height="24" viewBox="0 0 24 24" fill="none" xmlns="http://www.w3.org/2000/svg">
<g clip-path="url(#clip0_2_204)">
<path d="M9.65625 24H5.625C2.52338 24 0 21.4766 0 18.375V5.625C0 2.52338 2.52338 0 5.625 0H18.375C21.4766 0 24 2.52338 24 5.625V10.3125C24 10.8303 23.5803 11.25 23.0625 11.25C22.5447 11.25 22.125 10.8303 22.125 10.3125V5.625C22.125 3.55725 20.4427 1.875 18.375 1.875H5.625C3.55725 1.875 1.875 3.55725 1.875 5.625V18.375C1.875 20.4427 3.55725 22.125 5.625 22.125H9.65625C10.174 22.125 10.5938 22.5447 10.5938 23.0625C10.5938 23.5803 10.174 24 9.65625 24ZM10.9219 6.5625C10.9219 5.01169 9.66019 3.75 8.10938 3.75C6.55856 3.75 5.29688 5.01169 5.29688 6.5625C5.29688 8.11331 6.55856 9.375 8.10938 9.375C9.66019 9.375 10.9219 8.11331 10.9219 6.5625ZM9.04688 6.5625C9.04688 7.07944 8.62631 7.5 8.10938 7.5C7.59244 7.5 7.17188 7.07944 7.17188 6.5625C7.17188 6.04556 7.59244 5.625 8.10938 5.625C8.62631 5.625 9.04688 6.04556 9.04688 6.5625ZM20.25 9.09375C20.25 8.57597 19.8303 8.15625 19.3125 8.15625H13.5C12.9822 8.15625 12.5625 8.57597 12.5625 9.09375C12.5625 9.61153 12.9822 10.0312 13.5 10.0312H19.3125C19.8303 10.0312 20.25 9.61153 20.25 9.09375ZM13.3125 15.6562C13.3125 15.1385 12.8928 14.7188 12.375 14.7188H5.53125C5.01347 14.7188 4.59375 15.1385 4.59375 15.6562C4.59375 16.174 5.01347 16.5938 5.53125 16.5938H12.375C12.8928 16.5938 13.3125 16.174 13.3125 15.6562ZM9.5625 18.9375C9.5625 18.4197 9.14278 18 8.625 18H5.53125C5.01347 18 4.59375 18.4197 4.59375 18.9375C4.59375 19.4553 5.01347 19.875 5.53125 19.875H8.625C9.14278 19.875 9.5625 19.4553 9.5625 18.9375ZM13.59 23.9818L16.2461 23.4509C17.5633 23.1877 18.7615 22.5465 19.7114 21.5966L22.9977 18.3103C23.644 17.664 24 16.8046 24 15.8906C24 14.9766 23.6441 14.1173 22.9978 13.471C22.3515 12.8247 21.4921 12.4688 20.5781 12.4688C19.6641 12.4688 18.8048 12.8247 18.1585 13.471L14.8721 16.7573C13.9223 17.7072 13.2811 18.9055 13.0178 20.2226L12.4869 22.8787C12.4255 23.1861 12.5217 23.5038 12.7433 23.7255C12.9209 23.903 13.1601 24 13.4062 24C13.4673 24 13.5289 23.994 13.59 23.9818ZM21.6719 14.7968C21.9641 15.089 22.125 15.4775 22.125 15.8906C22.125 16.3038 21.9641 16.6923 21.6719 16.9844L18.3855 20.2708C17.6984 20.958 16.8315 21.4218 15.8787 21.6122L14.6012 21.8676L14.8565 20.5901C15.047 19.6372 15.5108 18.7703 16.198 18.0832L19.4843 14.7968C19.7765 14.5047 20.165 14.3438 20.5781 14.3438C20.9913 14.3438 21.3798 14.5047 21.6719 14.7968ZM19.3125 6.75H13.5C12.9822 6.75 12.5625 6.33028 12.5625 5.8125C12.5625 5.29472 12.9822 4.875 13.5 4.875H19.3125C19.8303 4.875 20.25 5.29472 20.25 5.8125C20.25 6.33028 19.8303 6.75 19.3125 6.75ZM11.2871 12.8185C11.6356 12.4356 11.6077 11.8427 11.2248 11.4942C10.454 10.7926 9.45328 10.4062 8.40703 10.4062H7.81172C6.76547 10.4062 5.76473 10.7926 4.99397 11.4942C4.61105 11.8427 4.58316 12.4356 4.93167 12.8185C5.28014 13.2014 5.87311 13.2293 6.25603 12.8808C6.68086 12.4942 7.23337 12.2812 7.81172 12.2812H8.40698C8.98538 12.2812 9.53789 12.4942 9.96267 12.8808C10.1423 13.0443 10.3682 13.125 10.5934 13.125C10.8482 13.125 11.1021 13.0218 11.2871 12.8185Z" fill="#0050B5"/>
</g>
<defs>
<clipPath id="clip0_2_204">
<rect width="24" height="24" fill="white"/>
</clipPath>
</defs>
</svg>
