<svg width="18" height="18" viewBox="0 0 18 18" fill="none" xmlns="http://www.w3.org/2000/svg">
<path d="M13 0.5H5C2.51472 0.5 0.5 2.51472 0.5 5V13C0.5 15.4853 2.51472 17.5 5 17.5H13C15.4853 17.5 17.5 15.4853 17.5 13V5C17.5 2.51472 15.4853 0.5 13 0.5Z" stroke="#0050B5"/>
<mask id="mask0_876_1531" style="mask-type:luminance" maskUnits="userSpaceOnUse" x="4" y="4" width="10" height="10">
<path d="M14 4H4V14H14V4Z" fill="white"/>
</mask>
<g mask="url(#mask0_876_1531)">
<path d="M13.7071 7.07023L8.43168 12.3453C8.04103 12.736 7.40733 12.736 7.01631 12.3453L4.2931 9.62188C3.9023 9.23115 3.9023 8.59738 4.2931 8.20658C4.68397 7.81571 5.31762 7.81571 5.70832 8.20643L7.7242 10.2223L12.2916 5.65486C12.6825 5.26399 13.3162 5.26428 13.707 5.65486C14.0977 6.04566 14.0977 6.67921 13.7071 7.07023Z" fill="#0050B5"/>
</g>
</svg>
